<mxfile host="Electron" modified="2024-06-17T18:37:19.491Z" agent="Mozilla/5.0 (Windows NT 10.0; Win64; x64) AppleWebKit/537.36 (KHTML, like Gecko) draw.io/21.6.5 Chrome/114.0.5735.243 Electron/25.3.1 Safari/537.36" etag="8hWUTIytEZC9L0SaDVkw" version="21.6.5" type="device" pages="2">
  <diagram name="DCSM" id="HbLOY_7qEume_lcPXrl4">
    <mxGraphModel dx="1036" dy="623" grid="1" gridSize="10" guides="1" tooltips="1" connect="1" arrows="1" fold="1" page="1" pageScale="1" pageWidth="827" pageHeight="1169" math="0" shadow="0">
      <root>
        <mxCell id="0" />
        <mxCell id="1" parent="0" />
        <mxCell id="4HbfaK9mT41X3QPtZjCY-11" style="edgeStyle=orthogonalEdgeStyle;rounded=0;orthogonalLoop=1;jettySize=auto;html=1;exitX=1;exitY=0.645;exitDx=0;exitDy=0;exitPerimeter=0;endArrow=none;endFill=0;fontSize=16;fontStyle=2;fontFamily=Arial;" parent="1" source="4HbfaK9mT41X3QPtZjCY-3" target="4HbfaK9mT41X3QPtZjCY-5" edge="1">
          <mxGeometry relative="1" as="geometry" />
        </mxCell>
        <mxCell id="4HbfaK9mT41X3QPtZjCY-3" value="" style="pointerEvents=1;verticalLabelPosition=bottom;shadow=0;dashed=0;align=center;html=1;verticalAlign=top;shape=mxgraph.electrical.inductors.inductor_5;fontSize=16;fontStyle=2;fontFamily=Arial;" parent="1" vertex="1">
          <mxGeometry x="410" y="222" width="100" height="14" as="geometry" />
        </mxCell>
        <mxCell id="4HbfaK9mT41X3QPtZjCY-10" style="edgeStyle=orthogonalEdgeStyle;rounded=0;orthogonalLoop=1;jettySize=auto;html=1;exitX=1;exitY=0.5;exitDx=0;exitDy=0;exitPerimeter=0;entryX=0;entryY=0.645;entryDx=0;entryDy=0;entryPerimeter=0;endArrow=none;endFill=0;fontSize=16;fontStyle=2;fontFamily=Arial;" parent="1" source="4HbfaK9mT41X3QPtZjCY-4" target="4HbfaK9mT41X3QPtZjCY-3" edge="1">
          <mxGeometry relative="1" as="geometry" />
        </mxCell>
        <mxCell id="4HbfaK9mT41X3QPtZjCY-27" style="edgeStyle=orthogonalEdgeStyle;rounded=0;orthogonalLoop=1;jettySize=auto;html=1;endArrow=oval;endFill=1;fontSize=16;fontStyle=2;fontFamily=Arial;" parent="1" source="4HbfaK9mT41X3QPtZjCY-4" edge="1">
          <mxGeometry relative="1" as="geometry">
            <mxPoint x="280" y="231" as="targetPoint" />
          </mxGeometry>
        </mxCell>
        <mxCell id="4HbfaK9mT41X3QPtZjCY-4" value="" style="pointerEvents=1;verticalLabelPosition=bottom;shadow=0;dashed=0;align=center;html=1;verticalAlign=top;shape=mxgraph.electrical.resistors.resistor_2;fontSize=16;fontStyle=2;fontFamily=Arial;" parent="1" vertex="1">
          <mxGeometry x="300" y="221" width="100" height="20" as="geometry" />
        </mxCell>
        <mxCell id="4HbfaK9mT41X3QPtZjCY-26" style="edgeStyle=orthogonalEdgeStyle;rounded=0;orthogonalLoop=1;jettySize=auto;html=1;endArrow=oval;endFill=1;fontSize=16;fontStyle=2;fontFamily=Arial;" parent="1" source="4HbfaK9mT41X3QPtZjCY-5" edge="1">
          <mxGeometry relative="1" as="geometry">
            <mxPoint x="280" y="330" as="targetPoint" />
            <Array as="points">
              <mxPoint x="530" y="330" />
            </Array>
          </mxGeometry>
        </mxCell>
        <mxCell id="4HbfaK9mT41X3QPtZjCY-5" value="" style="shape=cylinder3;whiteSpace=wrap;html=1;boundedLbl=1;backgroundOutline=1;size=15;direction=south;fontSize=16;fontStyle=2;fontFamily=Arial;" parent="1" vertex="1">
          <mxGeometry x="490" y="250" width="80" height="60" as="geometry" />
        </mxCell>
        <mxCell id="4HbfaK9mT41X3QPtZjCY-8" style="rounded=1;orthogonalLoop=1;jettySize=auto;html=1;entryX=0.5;entryY=0.125;entryDx=0;entryDy=0;entryPerimeter=0;strokeColor=default;endArrow=oval;endFill=1;strokeWidth=5;endSize=2;fontSize=16;fontStyle=2;fontFamily=Arial;" parent="1" source="4HbfaK9mT41X3QPtZjCY-6" target="4HbfaK9mT41X3QPtZjCY-5" edge="1">
          <mxGeometry relative="1" as="geometry" />
        </mxCell>
        <mxCell id="4HbfaK9mT41X3QPtZjCY-6" value="" style="shape=cylinder3;whiteSpace=wrap;html=1;boundedLbl=1;backgroundOutline=1;size=9.399983723958371;direction=south;fontSize=16;fontStyle=2;fontFamily=Arial;" parent="1" vertex="1">
          <mxGeometry x="600" y="262.5" width="70" height="35" as="geometry" />
        </mxCell>
        <mxCell id="4HbfaK9mT41X3QPtZjCY-16" style="edgeStyle=orthogonalEdgeStyle;rounded=0;orthogonalLoop=1;jettySize=auto;html=1;exitX=0;exitY=0.645;exitDx=0;exitDy=0;exitPerimeter=0;entryX=0;entryY=0.5;entryDx=0;entryDy=0;entryPerimeter=0;endArrow=none;endFill=0;fontSize=16;fontStyle=2;fontFamily=Arial;" parent="1" source="4HbfaK9mT41X3QPtZjCY-14" target="4HbfaK9mT41X3QPtZjCY-15" edge="1">
          <mxGeometry relative="1" as="geometry" />
        </mxCell>
        <mxCell id="4HbfaK9mT41X3QPtZjCY-17" style="rounded=0;orthogonalLoop=1;jettySize=auto;html=1;exitX=1;exitY=0.645;exitDx=0;exitDy=0;exitPerimeter=0;endArrow=none;endFill=0;fontSize=16;fontStyle=2;fontFamily=Arial;" parent="1" source="4HbfaK9mT41X3QPtZjCY-14" edge="1">
          <mxGeometry relative="1" as="geometry">
            <mxPoint x="637" y="182" as="targetPoint" />
          </mxGeometry>
        </mxCell>
        <mxCell id="4HbfaK9mT41X3QPtZjCY-14" value="" style="pointerEvents=1;verticalLabelPosition=bottom;shadow=0;dashed=0;align=center;html=1;verticalAlign=top;shape=mxgraph.electrical.inductors.inductor_5;aspect=fixed;fontSize=16;fontStyle=2;fontFamily=Arial;" parent="1" vertex="1">
          <mxGeometry x="562" y="224" width="50" height="7" as="geometry" />
        </mxCell>
        <mxCell id="4HbfaK9mT41X3QPtZjCY-15" value="" style="pointerEvents=1;verticalLabelPosition=bottom;shadow=0;dashed=0;align=center;html=1;verticalAlign=top;shape=mxgraph.electrical.resistors.resistor_2;aspect=fixed;rotation=300;fontSize=16;fontStyle=2;fontFamily=Arial;" parent="1" vertex="1">
          <mxGeometry x="542" y="199" width="50" height="10" as="geometry" />
        </mxCell>
        <mxCell id="4HbfaK9mT41X3QPtZjCY-18" value="" style="edgeStyle=none;orthogonalLoop=1;jettySize=auto;html=1;rounded=0;fontSize=16;fontStyle=2;fontFamily=Arial;" parent="1" edge="1">
          <mxGeometry width="100" relative="1" as="geometry">
            <mxPoint x="628" y="180" as="sourcePoint" />
            <mxPoint x="588" y="180" as="targetPoint" />
            <Array as="points" />
          </mxGeometry>
        </mxCell>
        <mxCell id="4HbfaK9mT41X3QPtZjCY-19" value="" style="edgeStyle=none;orthogonalLoop=1;jettySize=auto;html=1;rounded=0;fontSize=16;fontStyle=2;fontFamily=Arial;" parent="1" edge="1">
          <mxGeometry width="100" relative="1" as="geometry">
            <mxPoint x="626" y="220" as="sourcePoint" />
            <mxPoint x="639" y="196" as="targetPoint" />
            <Array as="points" />
          </mxGeometry>
        </mxCell>
        <mxCell id="4HbfaK9mT41X3QPtZjCY-20" value="R&lt;sub style=&quot;font-size: 16px;&quot;&gt;f&lt;/sub&gt;" style="text;html=1;align=center;verticalAlign=middle;resizable=0;points=[];autosize=1;strokeColor=none;fillColor=none;fontSize=16;fontStyle=2;fontFamily=Arial;" parent="1" vertex="1">
          <mxGeometry x="528" y="174" width="40" height="40" as="geometry" />
        </mxCell>
        <mxCell id="4HbfaK9mT41X3QPtZjCY-21" value="L&lt;sub style=&quot;font-size: 16px;&quot;&gt;f&lt;/sub&gt;" style="text;html=1;align=center;verticalAlign=middle;resizable=0;points=[];autosize=1;strokeColor=none;fillColor=none;fontSize=16;fontStyle=2;fontFamily=Arial;" parent="1" vertex="1">
          <mxGeometry x="567" y="193" width="40" height="40" as="geometry" />
        </mxCell>
        <mxCell id="4HbfaK9mT41X3QPtZjCY-23" value="V&lt;sub style=&quot;font-size: 16px;&quot;&gt;f&lt;/sub&gt;" style="text;html=1;align=center;verticalAlign=middle;resizable=0;points=[];autosize=1;strokeColor=none;fillColor=none;fontSize=16;fontStyle=2;fontFamily=Arial;" parent="1" vertex="1">
          <mxGeometry x="588" y="146" width="40" height="40" as="geometry" />
        </mxCell>
        <mxCell id="4HbfaK9mT41X3QPtZjCY-24" value="R&lt;sub style=&quot;font-size: 16px;&quot;&gt;a&lt;/sub&gt;" style="text;html=1;align=center;verticalAlign=middle;resizable=0;points=[];autosize=1;strokeColor=none;fillColor=none;fontSize=16;fontStyle=2;fontFamily=Arial;" parent="1" vertex="1">
          <mxGeometry x="330" y="187" width="40" height="40" as="geometry" />
        </mxCell>
        <mxCell id="4HbfaK9mT41X3QPtZjCY-28" value="i&lt;sub style=&quot;font-size: 16px;&quot;&gt;a&lt;/sub&gt;" style="text;html=1;align=center;verticalAlign=middle;resizable=0;points=[];autosize=1;strokeColor=none;fillColor=none;fontSize=16;fontStyle=2;fontFamily=Arial;" parent="1" vertex="1">
          <mxGeometry x="386" y="285" width="40" height="40" as="geometry" />
        </mxCell>
        <mxCell id="4HbfaK9mT41X3QPtZjCY-29" value="L&lt;sub style=&quot;font-size: 16px;&quot;&gt;a&lt;/sub&gt;" style="text;html=1;align=center;verticalAlign=middle;resizable=0;points=[];autosize=1;strokeColor=none;fillColor=none;fontSize=16;fontStyle=2;fontFamily=Arial;" parent="1" vertex="1">
          <mxGeometry x="440" y="187" width="40" height="40" as="geometry" />
        </mxCell>
        <mxCell id="4HbfaK9mT41X3QPtZjCY-32" value="" style="edgeStyle=none;orthogonalLoop=1;jettySize=auto;html=1;rounded=0;fontSize=16;fontStyle=2;fontFamily=Arial;" parent="1" edge="1">
          <mxGeometry width="100" relative="1" as="geometry">
            <mxPoint x="423" y="320" as="sourcePoint" />
            <mxPoint x="383" y="320" as="targetPoint" />
            <Array as="points" />
          </mxGeometry>
        </mxCell>
        <mxCell id="4HbfaK9mT41X3QPtZjCY-33" value="" style="edgeStyle=none;orthogonalLoop=1;jettySize=auto;html=1;rounded=0;fontSize=16;fontStyle=2;fontFamily=Arial;" parent="1" edge="1">
          <mxGeometry width="100" relative="1" as="geometry">
            <mxPoint x="480" y="300.09" as="sourcePoint" />
            <mxPoint x="480" y="259.91999999999996" as="targetPoint" />
            <Array as="points" />
          </mxGeometry>
        </mxCell>
        <mxCell id="4HbfaK9mT41X3QPtZjCY-34" value="V&lt;sub style=&quot;font-size: 16px;&quot;&gt;b&lt;/sub&gt;" style="text;html=1;align=center;verticalAlign=middle;resizable=0;points=[];autosize=1;strokeColor=none;fillColor=none;fontSize=16;fontStyle=2;fontFamily=Arial;" parent="1" vertex="1">
          <mxGeometry x="440" y="260" width="40" height="40" as="geometry" />
        </mxCell>
        <mxCell id="4HbfaK9mT41X3QPtZjCY-36" value="" style="edgeStyle=none;orthogonalLoop=1;jettySize=auto;html=1;rounded=0;fontSize=16;fontStyle=2;fontFamily=Arial;" parent="1" edge="1">
          <mxGeometry width="100" relative="1" as="geometry">
            <mxPoint x="280" y="300.16999999999996" as="sourcePoint" />
            <mxPoint x="280" y="259.99999999999994" as="targetPoint" />
            <Array as="points" />
          </mxGeometry>
        </mxCell>
        <mxCell id="4HbfaK9mT41X3QPtZjCY-37" value="V&lt;sub style=&quot;font-size: 16px;&quot;&gt;a&lt;/sub&gt;" style="text;html=1;align=center;verticalAlign=middle;resizable=0;points=[];autosize=1;strokeColor=none;fillColor=none;fontSize=16;fontStyle=2;fontFamily=Arial;" parent="1" vertex="1">
          <mxGeometry x="240" y="260.08" width="40" height="40" as="geometry" />
        </mxCell>
        <mxCell id="4HbfaK9mT41X3QPtZjCY-39" value="Armature circuit" style="text;html=1;align=center;verticalAlign=middle;resizable=0;points=[];autosize=1;strokeColor=none;fillColor=none;fontSize=16;fontStyle=2;fontFamily=Arial;" parent="1" vertex="1">
          <mxGeometry x="336" y="335" width="140" height="30" as="geometry" />
        </mxCell>
        <mxCell id="4HbfaK9mT41X3QPtZjCY-40" value="Mechanical load" style="text;html=1;align=center;verticalAlign=middle;resizable=0;points=[];autosize=1;strokeColor=none;fillColor=none;fontSize=16;fontStyle=2;fontFamily=Arial;" parent="1" vertex="1">
          <mxGeometry x="545" y="335" width="140" height="30" as="geometry" />
        </mxCell>
        <mxCell id="4HbfaK9mT41X3QPtZjCY-41" value="J&lt;sub style=&quot;font-size: 16px;&quot;&gt;m&lt;/sub&gt;" style="text;html=1;align=center;verticalAlign=middle;resizable=0;points=[];autosize=1;strokeColor=none;fillColor=none;fontSize=16;fontStyle=2;fontFamily=Arial;" parent="1" vertex="1">
          <mxGeometry x="590" y="301.9" width="40" height="40" as="geometry" />
        </mxCell>
        <mxCell id="4HbfaK9mT41X3QPtZjCY-42" value="B&lt;sub style=&quot;font-size: 16px;&quot;&gt;m&lt;/sub&gt;" style="text;html=1;align=center;verticalAlign=middle;resizable=0;points=[];autosize=1;strokeColor=none;fillColor=none;fontSize=16;fontStyle=2;fontFamily=Arial;" parent="1" vertex="1">
          <mxGeometry x="635" y="301.9" width="50" height="40" as="geometry" />
        </mxCell>
        <mxCell id="4HbfaK9mT41X3QPtZjCY-43" value="i&lt;sub style=&quot;font-size: 16px;&quot;&gt;f&lt;/sub&gt;" style="text;html=1;align=center;verticalAlign=middle;resizable=0;points=[];autosize=1;strokeColor=none;fillColor=none;fontSize=16;fontStyle=2;fontFamily=Arial;" parent="1" vertex="1">
          <mxGeometry x="626" y="196" width="30" height="40" as="geometry" />
        </mxCell>
        <mxCell id="4HbfaK9mT41X3QPtZjCY-49" value="" style="group;fontFamily=Arial;" parent="1" vertex="1" connectable="0">
          <mxGeometry x="600" y="301.9" width="70" height="13.180000000000007" as="geometry" />
        </mxCell>
        <mxCell id="4HbfaK9mT41X3QPtZjCY-44" value="" style="edgeStyle=none;orthogonalLoop=1;jettySize=auto;html=1;rounded=0;endArrow=none;endFill=0;fontFamily=Arial;" parent="4HbfaK9mT41X3QPtZjCY-49" edge="1">
          <mxGeometry width="100" relative="1" as="geometry">
            <mxPoint as="sourcePoint" />
            <mxPoint x="70" as="targetPoint" />
            <Array as="points" />
          </mxGeometry>
        </mxCell>
        <mxCell id="4HbfaK9mT41X3QPtZjCY-45" value="" style="edgeStyle=none;orthogonalLoop=1;jettySize=auto;html=1;rounded=0;endArrow=none;endFill=0;endSize=6;fontFamily=Arial;" parent="4HbfaK9mT41X3QPtZjCY-49" edge="1">
          <mxGeometry width="100" relative="1" as="geometry">
            <mxPoint x="7" y="0.10000000000002274" as="sourcePoint" />
            <mxPoint x="16" y="13.100000000000023" as="targetPoint" />
            <Array as="points" />
          </mxGeometry>
        </mxCell>
        <mxCell id="4HbfaK9mT41X3QPtZjCY-46" value="" style="edgeStyle=none;orthogonalLoop=1;jettySize=auto;html=1;rounded=0;endArrow=none;endFill=0;endSize=6;fontFamily=Arial;" parent="4HbfaK9mT41X3QPtZjCY-49" edge="1">
          <mxGeometry width="100" relative="1" as="geometry">
            <mxPoint x="25" y="0.10000000000002274" as="sourcePoint" />
            <mxPoint x="34" y="13.100000000000023" as="targetPoint" />
            <Array as="points" />
          </mxGeometry>
        </mxCell>
        <mxCell id="4HbfaK9mT41X3QPtZjCY-47" value="" style="edgeStyle=none;orthogonalLoop=1;jettySize=auto;html=1;rounded=0;endArrow=none;endFill=0;endSize=6;fontFamily=Arial;" parent="4HbfaK9mT41X3QPtZjCY-49" edge="1">
          <mxGeometry width="100" relative="1" as="geometry">
            <mxPoint x="41" y="0.18000000000000682" as="sourcePoint" />
            <mxPoint x="50" y="13.180000000000007" as="targetPoint" />
            <Array as="points" />
          </mxGeometry>
        </mxCell>
        <mxCell id="4HbfaK9mT41X3QPtZjCY-48" value="" style="edgeStyle=none;orthogonalLoop=1;jettySize=auto;html=1;rounded=0;endArrow=none;endFill=0;endSize=6;fontFamily=Arial;" parent="4HbfaK9mT41X3QPtZjCY-49" edge="1">
          <mxGeometry width="100" relative="1" as="geometry">
            <mxPoint x="56" y="0.18000000000000682" as="sourcePoint" />
            <mxPoint x="65" y="13.180000000000007" as="targetPoint" />
            <Array as="points" />
          </mxGeometry>
        </mxCell>
        <mxCell id="4HbfaK9mT41X3QPtZjCY-52" value="" style="html=1;verticalLabelPosition=bottom;align=center;labelBackgroundColor=#ffffff;verticalAlign=top;strokeWidth=2;strokeColor=#2200FF;shadow=0;dashed=0;shape=mxgraph.ios7.icons.reload;fontFamily=Arial;" parent="1" vertex="1">
          <mxGeometry x="577" y="263.5" width="12" height="29.92" as="geometry" />
        </mxCell>
        <mxCell id="4HbfaK9mT41X3QPtZjCY-54" style="rounded=1;orthogonalLoop=1;jettySize=auto;html=1;strokeColor=default;endArrow=none;endFill=0;strokeWidth=5;endSize=2;fontSize=16;fontStyle=2;fontFamily=Arial;" parent="1" edge="1">
          <mxGeometry relative="1" as="geometry">
            <mxPoint x="596" y="280.02000000000004" as="sourcePoint" />
            <mxPoint x="586" y="280.02000000000004" as="targetPoint" />
          </mxGeometry>
        </mxCell>
        <mxCell id="4HbfaK9mT41X3QPtZjCY-55" value="θ&lt;sub style=&quot;font-size: 16px;&quot;&gt;m&lt;/sub&gt;" style="text;html=1;align=center;verticalAlign=middle;resizable=0;points=[];autosize=1;strokeColor=none;fillColor=none;fontSize=16;fontStyle=2;fontFamily=Arial;" parent="1" vertex="1">
          <mxGeometry x="558" y="230" width="50" height="40" as="geometry" />
        </mxCell>
        <mxCell id="4HbfaK9mT41X3QPtZjCY-58" value="&lt;font style=&quot;font-size: 22px;&quot;&gt;𝜏&lt;/font&gt;&lt;sub style=&quot;font-size: 16px;&quot;&gt;m&lt;/sub&gt;" style="text;html=1;align=center;verticalAlign=middle;resizable=0;points=[];autosize=1;strokeColor=none;fillColor=none;fontSize=16;fontStyle=2;fontFamily=Arial;" parent="1" vertex="1">
          <mxGeometry x="557" y="280.99999999999994" width="50" height="40" as="geometry" />
        </mxCell>
      </root>
    </mxGraphModel>
  </diagram>
  <diagram id="78F0Tg-tSfCwotUx87wE" name="NLARX">
    <mxGraphModel dx="863" dy="519" grid="1" gridSize="10" guides="1" tooltips="1" connect="1" arrows="1" fold="1" page="1" pageScale="1" pageWidth="827" pageHeight="1169" math="0" shadow="0">
      <root>
        <mxCell id="0" />
        <mxCell id="1" parent="0" />
        <mxCell id="rHoFXcFfCozmFQK8A578-2" value="" style="rounded=0;whiteSpace=wrap;html=1;fillColor=#fff2cc;strokeColor=#d6b656;fontSize=16;" vertex="1" parent="1">
          <mxGeometry x="400" y="360" width="160" height="200" as="geometry" />
        </mxCell>
        <mxCell id="rHoFXcFfCozmFQK8A578-11" style="edgeStyle=orthogonalEdgeStyle;rounded=0;orthogonalLoop=1;jettySize=auto;html=1;endArrow=oval;endFill=1;fontSize=16;" edge="1" parent="1" source="rHoFXcFfCozmFQK8A578-4">
          <mxGeometry relative="1" as="geometry">
            <mxPoint x="540" y="460" as="targetPoint" />
          </mxGeometry>
        </mxCell>
        <mxCell id="rHoFXcFfCozmFQK8A578-4" value="Nonlinear function" style="rounded=0;whiteSpace=wrap;html=1;fontSize=16;" vertex="1" parent="1">
          <mxGeometry x="430" y="435" width="100" height="50" as="geometry" />
        </mxCell>
        <mxCell id="rHoFXcFfCozmFQK8A578-10" style="edgeStyle=orthogonalEdgeStyle;rounded=0;orthogonalLoop=1;jettySize=auto;html=1;fontSize=16;" edge="1" parent="1" source="rHoFXcFfCozmFQK8A578-5">
          <mxGeometry relative="1" as="geometry">
            <mxPoint x="610" y="460" as="targetPoint" />
            <Array as="points">
              <mxPoint x="540" y="395" />
              <mxPoint x="540" y="460" />
            </Array>
          </mxGeometry>
        </mxCell>
        <mxCell id="rHoFXcFfCozmFQK8A578-5" value="Offset" style="rounded=0;whiteSpace=wrap;html=1;fontSize=16;" vertex="1" parent="1">
          <mxGeometry x="430" y="370" width="100" height="50" as="geometry" />
        </mxCell>
        <mxCell id="rHoFXcFfCozmFQK8A578-12" style="edgeStyle=orthogonalEdgeStyle;rounded=0;orthogonalLoop=1;jettySize=auto;html=1;endArrow=classic;endFill=1;entryX=0;entryY=0.75;entryDx=0;entryDy=0;fontSize=16;" edge="1" parent="1" source="rHoFXcFfCozmFQK8A578-6" target="rHoFXcFfCozmFQK8A578-7">
          <mxGeometry relative="1" as="geometry">
            <mxPoint x="160" y="590" as="targetPoint" />
            <Array as="points">
              <mxPoint x="540" y="525" />
              <mxPoint x="540" y="460" />
              <mxPoint x="580" y="460" />
              <mxPoint x="580" y="580" />
              <mxPoint x="160" y="580" />
              <mxPoint x="160" y="510" />
            </Array>
          </mxGeometry>
        </mxCell>
        <mxCell id="rHoFXcFfCozmFQK8A578-6" value="Linear function" style="rounded=0;whiteSpace=wrap;html=1;fontSize=16;" vertex="1" parent="1">
          <mxGeometry x="430" y="500" width="100" height="50" as="geometry" />
        </mxCell>
        <mxCell id="rHoFXcFfCozmFQK8A578-8" style="edgeStyle=orthogonalEdgeStyle;rounded=0;orthogonalLoop=1;jettySize=auto;html=1;entryX=0;entryY=0.5;entryDx=0;entryDy=0;fontSize=16;" edge="1" parent="1" source="rHoFXcFfCozmFQK8A578-7" target="rHoFXcFfCozmFQK8A578-4">
          <mxGeometry relative="1" as="geometry" />
        </mxCell>
        <mxCell id="rHoFXcFfCozmFQK8A578-9" style="edgeStyle=orthogonalEdgeStyle;rounded=0;orthogonalLoop=1;jettySize=auto;html=1;entryX=0;entryY=0.5;entryDx=0;entryDy=0;fontSize=16;" edge="1" parent="1" source="rHoFXcFfCozmFQK8A578-7" target="rHoFXcFfCozmFQK8A578-6">
          <mxGeometry relative="1" as="geometry">
            <Array as="points">
              <mxPoint x="410" y="525" />
              <mxPoint x="410" y="525" />
            </Array>
          </mxGeometry>
        </mxCell>
        <mxCell id="rHoFXcFfCozmFQK8A578-7" value="&lt;b style=&quot;font-size: 16px;&quot;&gt;Regressors&lt;/b&gt;&lt;br style=&quot;font-size: 16px;&quot;&gt;u(t), u(t-1), y(t-), ..." style="rounded=0;whiteSpace=wrap;html=1;fillColor=#dae8fc;strokeColor=#6c8ebf;fontSize=16;" vertex="1" parent="1">
          <mxGeometry x="200" y="360" width="160" height="200" as="geometry" />
        </mxCell>
        <mxCell id="rHoFXcFfCozmFQK8A578-13" value="" style="edgeStyle=none;orthogonalLoop=1;jettySize=auto;html=1;rounded=0;fontSize=16;" edge="1" parent="1">
          <mxGeometry width="100" relative="1" as="geometry">
            <mxPoint x="160" y="410" as="sourcePoint" />
            <mxPoint x="200" y="410" as="targetPoint" />
            <Array as="points" />
          </mxGeometry>
        </mxCell>
        <mxCell id="rHoFXcFfCozmFQK8A578-14" value="u" style="text;html=1;align=center;verticalAlign=middle;resizable=0;points=[];autosize=1;strokeColor=none;fillColor=none;fontSize=16;" vertex="1" parent="1">
          <mxGeometry x="160" y="380" width="30" height="30" as="geometry" />
        </mxCell>
        <mxCell id="rHoFXcFfCozmFQK8A578-15" value="y" style="text;html=1;align=center;verticalAlign=middle;resizable=0;points=[];autosize=1;strokeColor=none;fillColor=none;fontSize=16;" vertex="1" parent="1">
          <mxGeometry x="580" y="430" width="30" height="30" as="geometry" />
        </mxCell>
      </root>
    </mxGraphModel>
  </diagram>
</mxfile>
